<?xml version="1.0" encoding="UTF-8"?>
<svg id="Group_2_Copy_4" data-name="Group 2 Copy 4" xmlns="http://www.w3.org/2000/svg" version="1.1" viewBox="0 0 57.8 96.4">
  <defs>
    <style>
      .cls-1 {
        fill: #535353;
      }

      .cls-1, .cls-2 {
        stroke-width: 0px;
      }

      .cls-2 {
        fill: #363636;
      }

      .cls-3 {
        isolation: isolate;
      }
    </style>
  </defs>
  <g id="LB_GRUPPE" data-name="LB GRUPPE">
    <g id="LB_GRUPPE-2" data-name="LB GRUPPE-2">
      <g id="Rectangle">
        <path class="cls-2" d="M34.9,47.6l10.1,11.9-10.1,11.9-10.1-11.9,10.1-11.9Z"/>
      </g>
      <g id="Rectangle_Copy" data-name="Rectangle Copy">
        <path class="cls-2" d="M14.7,47.6l10.1,11.9-10.1,11.9-10.1-11.9,10.1-11.9Z"/>
      </g>
      <g id="Rectangle_Copy_2" data-name="Rectangle Copy 2">
        <path class="cls-2" d="M14.7,23.8l10.1,11.9-10.1,11.9-10.1-11.9,10.1-11.9Z"/>
      </g>
      <g id="Rectangle_Copy_3" data-name="Rectangle Copy 3">
        <path class="cls-2" d="M14.7,0l10.1,11.9-10.1,11.9L4.6,11.9,14.7,0Z"/>
      </g>
      <g id="Rectangle_Copy_4" data-name="Rectangle Copy 4">
        <path class="cls-2" d="M34.9,23.8l10.1,11.9-10.1,11.9-10.1-11.9,10.1-11.9Z"/>
      </g>
    </g>
  </g>
  <g id="lb_energy." data-name="lb energy." class="cls-3">
    <path class="cls-1" d="M0,93.2v-10.1c0,0,0-.1.1-.1h1.1c0,0,.1,0,.1.1v10.1c0,0,0,.1-.1.1H.1c0,0-.1,0-.1-.1Z"/>
    <path class="cls-1" d="M9.6,89.6c0,.7,0,1.4-.3,1.9-.2.6-.6,1.1-1,1.5-.5.4-1.1.5-1.8.5s-.7,0-1-.2c-.3-.1-.6-.3-.8-.6,0,0,0,0,0,0,0,0,0,0,0,0v.5c0,0,0,.1-.1.1h-1.1c0,0-.1,0-.1-.1v-10.1c0,0,0-.1.1-.1h1.1c0,0,.1,0,.1.1v3.3s0,0,0,0c0,0,0,0,0,0,.2-.2.5-.4.8-.6.3-.1.6-.2,1-.2.7,0,1.4.2,1.8.5.5.4.8.9,1,1.5.2.5.2,1.1.2,1.8ZM8.1,89.6c0-.8-.2-1.5-.5-2-.3-.5-.7-.7-1.3-.7s-1,.3-1.3.8c-.3.5-.4,1.1-.4,1.9s.1,1.4.4,1.9c.3.5.7.8,1.3.8s1.1-.3,1.4-.8c.2-.5.4-1.1.4-1.8Z"/>
    <path class="cls-1" d="M20,90c0,0,0,.1-.1.1h-4.7s0,0,0,0c0,.3,0,.6,0,.8.1.4.3.7.7.9s.8.3,1.3.3c.7,0,1.3-.3,1.7-.9,0,0,.1-.1.2,0l.8.6c0,0,0,.1,0,.2-.3.4-.7.8-1.2,1.1-.5.3-1.1.4-1.7.4s-1.3-.2-1.8-.5c-.5-.3-.9-.8-1.1-1.4-.2-.6-.4-1.3-.4-2.1s0-1.3.2-1.6c.2-.7.5-1.2,1.1-1.6.5-.4,1.2-.6,1.9-.6s1.7.2,2.2.8.8,1.2.9,2.2c0,.4,0,.9,0,1.4ZM15.8,87.3c-.3.2-.5.5-.6.9,0,.2-.1.5-.1.8,0,0,0,0,0,0h3.4s0,0,0,0c0-.3,0-.6,0-.7,0-.4-.3-.7-.6-.9-.3-.2-.7-.3-1.1-.3s-.8.1-1.1.3Z"/>
    <path class="cls-1" d="M26.8,86.4c.5.5.7,1.1.7,1.9v4.9c0,0,0,.1-.1.1h-1.1c0,0-.1,0-.1-.1v-4.6c0-.5-.1-.9-.4-1.2-.3-.3-.7-.5-1.1-.5s-.8.2-1.1.5c-.3.3-.4.7-.4,1.2v4.6c0,0,0,.1-.1.1h-1.1c0,0-.1,0-.1-.1v-7.3c0,0,0-.1.1-.1h1.1c0,0,.1,0,.1.1v.5s0,0,0,0c0,0,0,0,0,0,.4-.5,1.1-.8,1.9-.8s1.5.2,1.9.7Z"/>
    <path class="cls-1" d="M35.4,90c0,0,0,.1-.1.1h-4.7s0,0,0,0c0,.3,0,.6,0,.8.1.4.3.7.7.9s.8.3,1.3.3c.7,0,1.3-.3,1.7-.9,0,0,.1-.1.2,0l.8.6c0,0,0,.1,0,.2-.3.4-.7.8-1.2,1.1-.5.3-1.1.4-1.7.4s-1.3-.2-1.8-.5c-.5-.3-.9-.8-1.1-1.4-.2-.6-.4-1.3-.4-2.1s0-1.3.2-1.6c.2-.7.5-1.2,1.1-1.6.5-.4,1.2-.6,1.9-.6s1.7.2,2.2.8c.5.5.8,1.2.9,2.2,0,.4,0,.9,0,1.4ZM31.1,87.3c-.3.2-.5.5-.6.9,0,.2-.1.5-.1.8,0,0,0,0,0,0h3.4s0,0,0,0c0-.3,0-.6,0-.7,0-.4-.3-.7-.6-.9-.3-.2-.7-.3-1.1-.3s-.8.1-1.1.3Z"/>
    <path class="cls-1" d="M41.1,86c0,0,0,0,0,.2l-.2,1.1c0,0,0,.1-.2,0-.2,0-.4-.1-.6-.1h-.2c-.5,0-.8.2-1.2.5s-.5.7-.5,1.2v4.3c0,0,0,.1-.1.1h-1.1c0,0-.1,0-.1-.1v-7.3c0,0,0-.1.1-.1h1.1c0,0,.1,0,.1.1v.8s0,0,0,0c0,0,0,0,0,0,.4-.7,1.1-1,1.8-1s.6,0,.9.2Z"/>
    <path class="cls-1" d="M46.7,85.8h1.1c0,0,.1,0,.1.1v7c0,1.2-.3,2.1-1,2.6-.7.5-1.6.8-2.7.8s-.4,0-.7,0c0,0-.1,0-.1-.2v-1s0,0,0-.1c0,0,0,0,.1,0,.1,0,.3,0,.6,0,.8,0,1.5-.2,1.8-.5.4-.3.6-.8.6-1.6v-.3s0,0,0,0c0,0,0,0,0,0-.4.5-1,.7-1.8.7s-1.2-.2-1.7-.5-.9-.8-1.1-1.5c-.1-.4-.2-1-.2-1.8s0-1.5.2-1.9c.2-.6.5-1.1,1-1.4.5-.4,1-.5,1.7-.5s1.5.2,1.9.7c0,0,0,0,0,0,0,0,0,0,0,0v-.5c0,0,0-.1.1-.1ZM46.5,90.5c0-.2,0-.5,0-.9s0-.7,0-.9c0-.2,0-.3,0-.5,0-.4-.3-.7-.5-.9s-.6-.3-1-.3-.8.1-1,.3-.5.5-.6.9c-.1.3-.2.8-.2,1.4s0,1.1.1,1.4c0,.4.3.7.6.9s.6.3,1.1.3.8-.1,1.1-.3c.3-.2.4-.5.5-.9,0-.2,0-.3,0-.5Z"/>
    <path class="cls-1" d="M49.3,96.2v-.9c0,0,0-.1.1-.1h0c.4,0,.7,0,.9-.1s.4-.3.6-.5c.1-.2.3-.6.4-1.1,0,0,0,0,0,0l-2.5-7.4h0c0-.1,0-.2.1-.2h1.2c0,0,.1,0,.2.1l1.7,5.6s0,0,0,0,0,0,0,0l1.7-5.6c0,0,0-.1.2-.1h1.2c.1,0,.1,0,.1.2l-2.7,7.9c-.2.7-.5,1.2-.7,1.5-.2.3-.5.6-.9.7s-.9.2-1.5.2h-.1c0,0-.1,0-.1-.1Z"/>
    <path class="cls-1" d="M56.1,93.1c-.2-.2-.3-.4-.3-.7s0-.5.3-.7c.2-.2.4-.3.7-.3s.5,0,.7.3c.2.2.3.4.3.7s0,.5-.3.7c-.2.2-.4.3-.7.3s-.5,0-.7-.3Z"/>
  </g>
</svg>